<svg width="200" height="50" viewBox="0 0 200 50" fill="none" xmlns="http://www.w3.org/2000/svg">
    <g clip-path="url(#clip0_102_2)">
        <path d="M25.0001 2.5L47.5001 13.75V36.25L25.0001 47.5L2.50006 36.25V13.75L25.0001 2.5Z" fill="#10B981" fill-opacity="0.3"/>
        <path d="M25.0001 2.5L47.5001 13.75V36.25L25.0001 47.5L2.50006 36.25V13.75L25.0001 2.5Z" stroke="#10B981" stroke-width="2"/>
        <path d="M32.0417 19.4167C31.125 18.5 29.8333 17.7917 28.1667 17.2083C26.5 16.625 24.7917 16.3333 23.0417 16.3333C21.0417 16.3333 19.25 16.7083 17.6667 17.4583C16.0833 18.2083 14.8333 19.2917 13.9167 20.7083C13 22.125 12.5417 23.75 12.5417 25.5833C12.5417 27.5417 13.0417 29.25 14.0417 30.7083C15.0417 32.1667 16.375 33.25 18.0417 33.9583C19.7083 34.6667 21.5833 35.0208 23.6667 35.0208C25.3333 35.0208 26.8333 34.75 28.1667 34.2083C29.5 33.6667 30.625 32.9167 31.5417 31.9583L29.5417 29.8333C28.875 30.5417 28 31.0625 27.0417 31.3958C26.0833 31.7292 25 31.8958 23.8333 31.8958C22.2917 31.8958 21 31.5625 19.9167 30.8958C18.8333 30.2292 18.0417 29.25 17.5417 27.9583H29.5417V26.375H17.2083C17.25 25.5417 17.4583 24.8333 17.8333 24.25C18.2083 23.6667 18.75 23.1667 19.4583 22.75C20.1667 22.3333 21.0417 22.125 22.0833 22.125C23.25 22.125 24.3333 22.4167 25.3333 23C26.3333 23.5833 27.2083 24.4167 27.9583 25.5L30.2917 23.75C29.1667 22.0417 27.625 20.75 25.6667 19.875L27.1667 17.5833L32.0417 19.4167Z" fill="white"/>
    </g>
    <text x="60" y="32" font-family="sans-serif" font-size="20" fill="white" font-weight="bold">Green Wipe</text>
    <defs>
        <clipPath id="clip0_102_2">
            <rect width="50" height="50" fill="white"/>
        </clipPath>
    </defs>
</svg>
